<?xml version="1.0" encoding="UTF-8" standalone="no"?>
<!-- Created with Inkscape (http://www.inkscape.org/) -->
<svg id="svg4600" xmlns:rdf="http://www.w3.org/1999/02/22-rdf-syntax-ns#" xmlns="http://www.w3.org/2000/svg" height="140" width="140.01" version="1.1" xmlns:cc="http://creativecommons.org/ns#" xmlns:dc="http://purl.org/dc/elements/1.1/">
 <metadata id="metadata4605">
  <rdf:RDF>
   <cc:Work rdf:about="">
    <dc:format>image/svg+xml</dc:format>
    <dc:type rdf:resource="http://purl.org/dc/dcmitype/StillImage"/>
    <dc:title/>
   </cc:Work>
  </rdf:RDF>
 </metadata>
 <g id="layer1" transform="translate(-100.60099,-378.7819)">
  <path id="rect4809" stroke-linejoin="round" style="enable-background:accumulate;color:black;" d="m103.93,438.2,133.36,0,0,12.24,0,12.24,0,12.24s0.46637,7.204-1.9584,9.6288-6.3764,2.6112-6.3764,2.6112h-8.3348-8.3348-8.3348-8.3348-8.3348-8.3348-8.3348-8.3348-8.3348-8.3348-8.3348-8.3348-8.3348-8.3348s-3.9517-0.18643-6.3764-2.6112c-2.4248-2.4248-1.9584-9.6288-1.9584-9.6288v-12.24-12.24z" stroke="#777" stroke-linecap="round" stroke-miterlimit="4" stroke-dasharray="none" stroke-width="6.57102585" fill="none"/>
  <path id="rect4809-9" stroke-linejoin="round" style="enable-background:accumulate;color:black;" d="m103.93,438.2,133.36,0-4.08-3.4738-4.08-3.4738-4.08-3.4738-4.08-3.4738-4.08-3.4738-4.08-3.4738-4.08-3.4738s-2.5637-2.0227-4.7328-2.821c-2.1691-0.79834-7.8569-0.6528-7.8569-0.6528h-8.5097-8.5097-8.5097-8.5097-8.5097-8.5097s-5.6878-0.14554-7.8569,0.6528c-2.1691,0.79833-4.7328,2.821-4.7328,2.821l-4.08,3.4738-4.08,3.4738-4.08,3.4738-4.08,3.4738-4.08,3.4738-4.08,3.4738z" stroke="#777" stroke-linecap="round" stroke-miterlimit="4" stroke-dasharray="none" stroke-width="6.57102585" fill="none"/>
  <path id="path4848" style="enable-background:accumulate;color:black;" d="m162.86,398.08a11.429,11.429,0,1,1,-22.857,0,11.429,11.429,0,1,1,22.857,0z" transform="matrix(0.32639824,0,0,0.32639824,69.422531,322.72578)" fill="#777"/>
  <path id="path5358" stroke-linejoin="round" d="m134.8,453.12,41.033,0" stroke="#777" stroke-linecap="round" stroke-miterlimit="4" stroke-dasharray="none" stroke-width="6.52796507" fill="none"/>
 </g>
</svg>
