<?xml version="1.0" encoding="UTF-8" standalone="no"?>
<svg id="svg5532" xmlns:rdf="http://www.w3.org/1999/02/22-rdf-syntax-ns#" xmlns="http://www.w3.org/2000/svg" height="140" width="140" version="1.1" xmlns:cc="http://creativecommons.org/ns#" xmlns:dc="http://purl.org/dc/elements/1.1/">
 <metadata id="metadata5540">
  <rdf:RDF>
   <cc:Work rdf:about="">
    <dc:format>image/svg+xml</dc:format>
    <dc:type rdf:resource="http://purl.org/dc/dcmitype/StillImage"/>
    <dc:title/>
   </cc:Work>
  </rdf:RDF>
 </metadata>
 <path id="path5534" fill="#777" d="m70,1.726c-38.657,0-70,31.343-70,70,0,30.933,20.055,57.166,47.873,66.42,3.4992,0.64094,4.7767-1.521,4.7767-3.3667,0-1.6663-0.06412-7.1862-0.0983-13.031-19.465,4.2297-23.58-8.2544-23.58-8.2544-3.1872-8.0835-7.7716-10.237-7.7716-10.237-6.3617-4.3408,0.48262-4.2554,0.48262-4.2554,7.0282,0.48699,10.728,7.2119,10.728,7.2119,6.2464,10.698,16.389,7.605,20.371,5.8106,0.63629-4.5117,2.4478-7.605,4.4434-9.3481-15.539-1.77-31.885-7.78-31.885-34.603,0-7.6478,2.7301-13.885,7.1991-18.786-0.71354-1.7773-3.1232-8.8996,0.69207-18.534,0,0,5.8704-1.8799,19.252,7.1777,5.5798-1.5594,11.566-2.3285,17.517-2.3542,5.9473,0.0257,11.937,0.80322,17.526,2.3626,13.356-9.0661,19.235-7.1777,19.235-7.1777,3.8281,9.6429,1.4185,16.757,0.70069,18.525,4.486,4.9006,7.1948,11.138,7.1948,18.786,0,26.891-16.372,32.812-31.966,34.547,2.5208,2.1704,4.751,6.4258,4.751,12.954,0,9.3568-0.09406,16.902-0.09406,19.209,0,1.8628,1.2731,4.0417,4.8193,3.3581,27.8-9.27,47.84-35.5,47.84-66.414,0-38.657-31.34-70-70-70z"/>
</svg>
