<?xml version="1.0" encoding="UTF-8" standalone="no"?>
<svg id="svg2" xmlns:rdf="http://www.w3.org/1999/02/22-rdf-syntax-ns#" xmlns="http://www.w3.org/2000/svg" viewBox="0 0 346.28103 347.55011" height="100%" width="100%" version="1.1" xmlns:cc="http://creativecommons.org/ns#" xmlns:dc="http://purl.org/dc/elements/1.1/">
 <g id="g4" stroke="#777" transform="translate(673.14 401.41)">
  <rect id="rect6" fill-rule="evenodd" height="216.93" width="237.27" y="-327.73" x="-614.85" fill="#FFF"/>
  <path id="path8" style="color:#000000;text-indent:0;block-progression:tb;text-decoration-line:none;text-transform:none;" d="m-615.02-335.05-7.473,7.473,5.2842,211.43,7.473,7.473c77.328,14.56,154.66,3.5227,231.98,5.2841l7.473-7.473c2.0407-68.611,12.304-122.6,0-216.72l-7.473-7.473c-52.01-7.2213-158.17,0-237.27,0zm13.418,16.928c65.496-13.919,144.25-1.3212,216.38-1.9815,3.7422,67.257,15.858,134.51-5.9448,201.77-70.364-1.7614-176.14,16.15-211.09-5.2841-9.9295-63.385-0.34226-129.56,0.66062-194.51z" fill-rule="evenodd" fill="#777"/>
  <path id="path10" d="m-566.44-365.41c-16.702,5.2935-20.7,22.623-27.158,37.614-5.9573,14.853-8.4983,32.68,3.364,45.379,10.672,10.045,22.6,9.6548,35.082,4.3314,4.822-0.7324,14.445-3.3762,9.7881-9.7321-1.2644-2.8223-4.8422,0.3004-6.1074-2.5222-10.187,4.2828-18.969,3.4705-30.253,0.6457-9.8626-6.1259-2.9532-19.8-0.84594-28.977,3.5304-12.226,7.1946-23.891,17.608-31.596,11.557,0.3692,13.435,14.721,16.766,23.105,7.8954,5.9115,11.856-4.4915,8.0266-10.676-1.5137-11.016-6.0093-24.293-18.081-27.371-2.6623-0.701-5.5019-0.8445-8.1904-0.1988z" style="color:#000000;text-indent:0;block-progression:tb;text-decoration-line:none;text-transform:none;" fill="#777"/>
  <path id="path12" d="m-492.18-365.41c-16.702,5.2935-25.324,22.293-31.782,37.284-5.9572,14.853-8.4981,34.332,3.3642,47.03,10.672,10.045,27.223,8.3337,39.706,3.0103,4.822-0.7324,14.445-3.3762,9.7881-9.7321-1.2644-2.8223-2.5304-5.6447-3.7955-8.4669-10.187,4.2828-25.574,13.709-36.858,10.883-9.8678-6.1304-2.9476-28.067-0.84444-37.249,3.5394-12.271,10.24-25.265,20.671-33.009,11.984,0.5515,9.7795,21.685,12.633,29.498,5.9422,3.7231,18.33,1.0014,13.838-7.9215-1.1523-11.572-4.5817-25.686-16.538-30.49-3.2209-1.233-6.8066-1.6331-10.183-0.837z" style="color:#000000;text-indent:0;block-progression:tb;text-decoration-line:none;text-transform:none;" fill="#777"/>
  <path id="path14" d="m-417.92-365.41c-16.702,5.2935-25.324,22.293-31.782,37.284-5.9572,14.853-8.4981,34.332,3.3642,47.03,10.672,10.045,28.214,3.71,40.697-1.6134,4.822-0.7324,13.454,1.248,8.7974-5.1084-1.2644-2.8223-2.5304-1.6814-3.7955-4.5037-10.187,4.2828-22.932,9.7454-34.216,6.9202-9.8678-6.1304-9.2227-22.783-7.1192-31.965,3.5394-12.271,15.194-25.265,25.625-33.009,11.984,0.5515,14.403,16.401,17.257,24.214,5.9422,3.7231,12.385,1.0014,7.8933-7.9215-1.1523-11.572-4.5817-25.686-16.538-30.489-3.2207-1.233-6.8069-1.6328-10.183-0.8384z" style="color:#000000;text-indent:0;block-progression:tb;text-decoration-line:none;text-transform:none;" fill="#777"/>
  <g id="g16" stroke-width="1.16140000000000021" transform="matrix(9.9379,0,0,9.9243,-1592.2,-5456.1)">
   <path id="path18" d="m107.15,535.19h-0.87804c0.95081-3.0298,0.19758-6.2302,0-9.375-0.29331,0.003-0.40727-0.38853-1.2899,0.91312l-0.42101-0.585c0.65559-0.612,1.5172-0.96609,1.7109-2.1562,0.52648-0.21754,1.1576-0.61837,1.207,0-0.10647,3.7349,0.49501,7.588-0.32899,11.203z" fill="#777"/>
   <path id="path20" d="m117.76,532.12c0.0667,1.5717-1.4921,3.1448-3.081,3.3604-1.1559,0.21153-2.3635-0.33799-3.0387-1.2844-1.2886-1.6327-1.0992-3.0318-0.79366-5.0348,0.27864-1.7131,1.2613-3.4418,2.9293-4.1204,1.0043-0.41969,1.8537-0.52833,2.8585-0.0896,0,0.37891-0.1175,0.005-0.1175,0.38372-1.2779-0.62036-2.9387-0.29903-3.8535,0.80075-0.83689,0.91592-1.236,2.1876-1.1687,3.418,0.44848-0.33709,0.84419-0.76121,1.3908-0.94384,1.2507-0.52477,2.8856-0.23305,3.695,0.91232,0.56433,0.73649,1.1839,1.68,1.1796,2.5979zm-0.78405-0.34114s-0.36944-2.2165-1.4147-2.5287c-1.2391-0.37007-3.5177-0.15966-4.1959,0.9461-0.56722,0.92478-1.3154,2.8647,1.6858,4.7856,0.6871,0.43975,2.0252,0.0408,2.8462-0.2013,0.81802-0.24127,1.0432-1.8298,1.0644-2.6645,0.003-0.11252,0.1265-0.3372,0.0142-0.3372z"/>
  </g>
  <path id="path22" d="m-413.34-59.955c88.965-6.4042,91.485-115.58,83.269-182.74,14.329-73.508-18.792-170.47-109.64-157.55-68.194,12.576-143.91-19.825-205.84,17.8-52.936,56.162-11.003,144.4-23.934,214.2-17.503,93.768,93.677,124.26,166.24,111.69,29.911-2.0373,59.914-3.3021,89.899-3.4033zm0-21.249c-73.875,0.562-176.6,30.146-227.15-38.12-26.616-70.288-25.149-158.87,2.7045-227.55,49.74-60.845,133.79-19.722,199.78-37.707,94.953-7.3628,93.746,107.66,86.201,173.7,5.265,52.848,14.907,128.49-61.533,129.68z" style="color:#000000;text-indent:0;block-progression:tb;text-decoration-line:none;text-transform:none;" fill="#777"/>
 </g>
 <metadata id="metadata24">
  <rdf:RDF>
   <cc:Work>
    <dc:format>image/svg+xml</dc:format>
    <dc:type rdf:resource="http://purl.org/dc/dcmitype/StillImage"/>
    <cc:license rdf:resource="http://creativecommons.org/licenses/publicdomain/"/>
    <dc:publisher>
     <cc:Agent rdf:about="http://openclipart.org/">
      <dc:title>Openclipart</dc:title>
     </cc:Agent>
    </dc:publisher>
    <dc:title/>
   </cc:Work>
   <cc:License rdf:about="http://creativecommons.org/licenses/publicdomain/">
    <cc:permits rdf:resource="http://creativecommons.org/ns#Reproduction"/>
    <cc:permits rdf:resource="http://creativecommons.org/ns#Distribution"/>
    <cc:permits rdf:resource="http://creativecommons.org/ns#DerivativeWorks"/>
   </cc:License>
  </rdf:RDF>
 </metadata>
</svg>
