<?xml version="1.0" encoding="UTF-8" standalone="no"?>
<!-- Created with Inkscape (http://www.inkscape.org/) -->
<svg id="svg5109" xmlns:rdf="http://www.w3.org/1999/02/22-rdf-syntax-ns#" xmlns="http://www.w3.org/2000/svg" xmlns:osb="http://www.openswatchbook.org/uri/2009/osb" height="140" width="140" version="1.1" xmlns:cc="http://creativecommons.org/ns#" xmlns:xlink="http://www.w3.org/1999/xlink" xmlns:dc="http://purl.org/dc/elements/1.1/">
 <defs id="defs5111">
  <linearGradient id="linearGradient7343" y2="337.46" gradientUnits="userSpaceOnUse" x2="-65.709" y1="337.46" x1="-275.48">
   <stop id="stop7341" stop-color="#777" offset="0"/>
  </linearGradient>
 </defs>
 <metadata id="metadata5114">
  <rdf:RDF>
   <cc:Work rdf:about="">
    <dc:format>image/svg+xml</dc:format>
    <dc:type rdf:resource="http://purl.org/dc/dcmitype/StillImage"/>
    <dc:title/>
   </cc:Work>
  </rdf:RDF>
 </metadata>
 <path id="path5865" d="m-196.59,320.02c-3.8682-21.955,26.951-25.702,40.771-18.859,27.605,13.668,30.334,50.774,14.382,74.243-22.776,33.51-70.686,36.077-101.48,12.49-39.339-30.135-41.724-88.503-11.32-125.76,36.672-44.936,104.92-47.163,148.13-10.487,50.302,42.693,52.394,120.32,9.8465,169.13-9.8669,11.319-21.752,20.841-34.916,28.058" transform="matrix(0.13119808,0.09410194,-0.05126465,0.0714738,152.23232,7.9861448)" stroke="url(#linearGradient7343)" stroke-dasharray="none" stroke-miterlimit="4" stroke-width="2.55181909" fill="none"/>
 <path id="path5867" stroke-linejoin="miter" d="m70.579,56.293c6.3669,0.0901,14.796,7.9217,17.13,13.189,3.668,8.2757-3.5729,11.369-13.36,8.1774-12.75-4.1582-25.459-16.318-28.344-25.748-3.4895-11.405,7.2228-15.491,22.026-10.052,17.179,6.3122,33.823,22.488,37.09,34.959,3.0491,11.639-5.8067,17.441-20.333,14.365" stroke="#777" stroke-linecap="butt" stroke-miterlimit="4" stroke-dasharray="none" stroke-width="0.30409855" fill="none"/>
 <g id="layer1" transform="translate(-237.25902,-661.75099)">
  <path id="path7540" style="enable-background:accumulate;color:black;" fill="#ccc" d="m310.25,740.79c-0.70041-0.23507-1.396-0.48415-2.0941-0.76525-0.79415-0.31979-1.5853-0.67194-2.372-1.0464-1.1856-0.56432-2.3399-1.2367-3.4949-1.9103l-17.08,22.787c1.1077,1.4628,2.0512,2.4068,3.3871,3.365s2.9761,1.8673,4.6285,2.3842zm-26.459,21.042-24.332,32.473c-1.0103,1.3482,0.67262,3.4763,2.0416,4.4582l2.4711,1.7724c1.369,0.9819,3.9244,1.8937,4.8774,0.50449l22.957-33.459s-2.3381-0.74142-4.5744-2.3454-3.4411-3.4037-3.4411-3.4037z"/>
  <path id="path7450" style="enable-background:accumulate;color:black;" fill="#ccc" d="m321.88,723.97c-0.21376-0.22603-0.39945-0.4579-0.62282-0.68061-0.71979-0.71768-1.4829-1.4123-2.2816-2.0692-0.7987-0.65691-1.6285-1.2773-2.4743-1.8332-0.24276-0.15956-0.49216-0.27434-0.73711-0.42344l-11.352,15.142c1.155,0.67355,2.3092,1.346,3.4949,1.9103,0.78667,0.37443,1.5778,0.72661,2.372,1.0464,0.6981,0.2811,1.3937,0.53018,2.0941,0.76524l9.5067-13.858z"/>
  <path id="path7448" style="enable-background:accumulate;color:black;" fill="#ccc" d="m327.15,716.24c-0.11579-0.10153-0.22081-0.21118-0.33743-0.31219-0.89081-0.77161-1.8062-1.5214-2.7419-2.259-0.90101-0.71025-1.8163-1.4074-2.7533-2.0801l-6.2569,8.3648c0.24496,0.14908,0.49434,0.26389,0.73711,0.42344,0.84579,0.55588,1.6756,1.1762,2.4743,1.8332,0.79871,0.65691,1.5618,1.3515,2.2816,2.0692,0.22337,0.22273,0.40906,0.4546,0.62282,0.68063l5.9737-8.7199z"/>
  <path id="path7505" style="enable-background:accumulate;color:black;" fill="#ccc" d="m354.71,676.18,1.0492-1.528c0.95307-1.3892,1.3042-2.0584-0.0648-3.0403l-1.4826-1.0634c-1.369-0.98191-1.8902-0.43472-2.9006,0.91344l-0.97799,1.2983c0.17156,0.0676,0.34036,0.12154,0.5177,0.20758,0.65946,0.32006,1.3394,0.75631,1.9518,1.2245,0.61239,0.46824,1.155,0.97071,1.5206,1.4181,0.15928,0.19492,0.25348,0.37908,0.38664,0.56969z"/>
  <path id="path7503" style="enable-background:accumulate;color:black;" fill="#ccc" d="m343.22,682.37-21.9,29.212c0.93692,0.67275,1.8523,1.3698,2.7533,2.0801,0.93574,0.7376,1.8511,1.4874,2.7419,2.259,0.11662,0.10101,0.22164,0.21067,0.33743,0.31219l21.683-31.601c-0.0147-0.00091-0.0274-0.005-0.042-0.007-0.63139-0.10312-1.2785-0.26462-1.9323-0.48545-0.65383-0.22084-1.3125-0.50519-1.9681-0.82688-0.56539-0.27743-1.1216-0.60261-1.674-0.94338z"/>
  <path id="rect5117" style="enable-background:accumulate;color:black;" fill="#ccc" d="m345.34,679.41c0.55234,0.34077,1.1086,0.66595,1.674,0.94339,0.65554,0.32169,1.3142,0.60603,1.9681,0.82686,0.65383,0.22084,1.3009,0.38233,1.9323,0.48545,0.0147,0.00091,0.0274,0.005,0.042,0.007l4.1025-5.9806c-0.13316-0.19062-0.22737-0.37477-0.38663-0.56969-0.36562-0.44741-0.90823-0.94988-1.5206-1.4181-0.61238-0.46824-1.2924-0.90447-1.9518-1.2245-0.17731-0.0861-0.34613-0.14-0.5177-0.20759l-5.342,7.1381z"/>
  <path id="path7561" d="m285.23,759.82-1.4401,2.0078s1.124,1.8353,3.4509,3.5043,4.5492,2.2338,4.5492,2.2338l1.4622-2.0386s-2.2008-0.53941-4.4986-2.174c-2.2977-1.6346-3.5237-3.5332-3.5237-3.5332z" fill-opacity="0.94117647" fill="#77777f"/>
 </g>
 <path id="path7529" style="color:black;enable-background:accumulate;" fill-rule="evenodd" transform="matrix(0.30409856,0,0,0.30409856,-6.1281088,-105.59269)" fill="#999" d="m212.13,440.25-6.594-39.917-39.917-6.594,39.917-6.594,6.594-39.917,6.594,39.917,39.917,6.594-39.917,6.594z"/>
 <path id="path7531" style="color:black;enable-background:accumulate;" fill-rule="evenodd" transform="matrix(0.30409856,0,0,0.30409856,26.205132,-62.281025)" fill="#999" d="m335.37,432.21-3.7345-22.607-22.607-3.7345,22.607-3.7345,3.7345-22.607,3.7345,22.607,22.607,3.7345-22.607,3.7345z"/>
 <path id="path7533" style="color:black;enable-background:accumulate;" fill-rule="evenodd" transform="matrix(0.30409856,0,0,0.30409856,-71.154657,-57.295055)" fill="#999" d="m270.72,470.51-3.4371-20.807-20.807-3.4371,20.807-3.4371,3.4371-20.807,3.4371,20.807,20.807,3.4371-20.807,3.4371z"/>
</svg>
