<?xml version="1.0" encoding="UTF-8" standalone="no"?>
<svg id="svg1" xmlns:rdf="http://www.w3.org/1999/02/22-rdf-syntax-ns#" height="100%" xmlns="http://www.w3.org/2000/svg" viewBox="0 0 140.01102 140" width="100%" _SVGFile__filename="oldscale/apps/gxmessage.svg" version="1.0" y="0" x="0" xmlns:cc="http://creativecommons.org/ns#" xmlns:dc="http://purl.org/dc/elements/1.1/">
 <path id="path672" stroke-linejoin="round" d="m70.01,12.11c37.164,0,67.335,23.224,67.335,49.034,0,26.313-30.171,43.711-67.335,43.711-7.5946,0-15.168-0.41246-21.624-1.9073-5.3858,4.7781-1.7469,12.683-1.7469,12.683s13.169,28.541-10.264-1.4732c-4.381-5.76-7.797-10.87-9.818-15.259-8.68-4.056-23.372-18.117-23.876-37.757-0.6491-25.298,30.171-49.034,67.335-49.034z" stroke="#777" stroke-linecap="round" stroke-miterlimit="4" stroke-dasharray="none" stroke-width="5.32020187" fill="none"/>
 <metadata id="metadata6">
  <rdf:RDF>
   <cc:Work>
    <dc:format>image/svg+xml</dc:format>
    <dc:type rdf:resource="http://purl.org/dc/dcmitype/StillImage"/>
    <cc:license rdf:resource="http://creativecommons.org/licenses/publicdomain/"/>
    <dc:publisher>
     <cc:Agent rdf:about="http://openclipart.org/">
      <dc:title>Openclipart</dc:title>
     </cc:Agent>
    </dc:publisher>
    <dc:title/>
   </cc:Work>
   <cc:License rdf:about="http://creativecommons.org/licenses/publicdomain/">
    <cc:permits rdf:resource="http://creativecommons.org/ns#Reproduction"/>
    <cc:permits rdf:resource="http://creativecommons.org/ns#Distribution"/>
    <cc:permits rdf:resource="http://creativecommons.org/ns#DerivativeWorks"/>
   </cc:License>
  </rdf:RDF>
 </metadata>
 <g id="text3753" style="letter-spacing:0px;text-anchor:middle;word-spacing:0px;text-align:center;" font-weight="normal" font-size="40px" transform="matrix(2.8673943,0,0,2.4850604,-12.347562,-4.9874572)" line-height="125%" font-style="normal" font-family="Sans" fill="#777">
  <text id="text3760" style="letter-spacing:0px;text-anchor:middle;word-spacing:0px;text-align:center;" font-weight="normal" xml:space="preserve" font-size="33.66604996px" line-height="125%" y="38.404884" x="28.712307" font-family="Sans" font-style="normal" fill="#777"><tspan id="tspan3762" x="28.712307" y="38.404884">#</tspan></text>
 </g>
</svg>
