<?xml version="1.0" encoding="UTF-8" standalone="no"?>
<!-- Created with Inkscape (http://www.inkscape.org/) -->
<svg id="svg12774" xmlns:rdf="http://www.w3.org/1999/02/22-rdf-syntax-ns#" xmlns="http://www.w3.org/2000/svg" height="140" width="140" version="1.1" xmlns:cc="http://creativecommons.org/ns#" xmlns:dc="http://purl.org/dc/elements/1.1/">
 <metadata id="metadata12779">
  <rdf:RDF>
   <cc:Work rdf:about="">
    <dc:format>image/svg+xml</dc:format>
    <dc:type rdf:resource="http://purl.org/dc/dcmitype/StillImage"/>
    <dc:title/>
   </cc:Work>
  </rdf:RDF>
 </metadata>
 <g id="layer1" transform="translate(-388.77455,-542.44627)">
  <g id="g12819" fill="#777" transform="translate(0,-14.138335)">
   <g id="g19146" transform="matrix(4.4198895,0,0,-4.4198895,404.66932,678.09579)">
    <path id="path19148" d="m0,0s-3.666,9.942-3.025,23.564c0,0,2.03-15.93,3.025-23.564" fill-rule="nonzero" fill="#777"/>
   </g>
   <g id="g19150" transform="matrix(4.4198895,0,0,-4.4198895,392.77763,574.28008)">
    <path id="path19152" d="M0,0s7.845-4.879,14.531-14.82c0,0-9.814,10.028-14.531,14.82" fill-rule="nonzero" fill="#777"/>
   </g>
   <g id="g19154" transform="matrix(4.4198895,0,0,-4.4198895,405.36855,678.22528)">
    <path id="path19156" d="M0,0s3.343,4.985,9.019,9.817c0,0-6.1-6.63-9.019-9.817" fill-rule="nonzero" fill="#777"/>
   </g>
   <g id="g19158" transform="matrix(4.4198895,0,0,-4.4198895,466.91466,634.98019)">
    <path id="path19160" d="M0,0s4.391-4.089,8.265-10.459c0,0-5.583,7.074-8.265,10.459" fill-rule="nonzero" fill="#777"/>
   </g>
   <g id="g19162" transform="matrix(4.4198895,0,0,-4.4198895,526.24634,585.98572)">
    <path id="path19164" d="m0,0s-8.001-3.726-15.666-12.172c0,0,10.583,8.237,15.666,12.172" fill-rule="nonzero" fill="#777"/>
   </g>
   <g id="g19166" transform="matrix(4.4198895,0,0,-4.4198895,503.97009,681.03502)">
    <path id="path19168" d="M0,0s4.837,8.101,4.97,20.871c0,0-3.344-14.113-4.97-20.871" fill-rule="nonzero" fill="#777"/>
   </g>
   <g id="g19170" transform="matrix(4.4198895,0,0,-4.4198895,505.04459,682.44627)">
    <path id="path19172" d="M0,0s-9.551,3.058-22.671,0.741c0,0,15.328-0.486,22.671-0.741" fill-rule="nonzero" fill="#777"/>
   </g>
   <g id="g19174" transform="matrix(4.4198895,0,0,-4.4198895,388.77455,571.94504)">
    <path id="path19176" d="m0,0s14.138,1.61,31.675-2.94c0,0-21.41,2.004-31.675,2.94" fill-rule="nonzero" fill="#777"/>
   </g>
  </g>
 </g>
</svg>
