<?xml version="1.0" encoding="UTF-8" standalone="no"?>
<!-- Created with Inkscape (http://www.inkscape.org/) -->
<svg id="svg2" xmlns:rdf="http://www.w3.org/1999/02/22-rdf-syntax-ns#" xmlns="http://www.w3.org/2000/svg" height="140" width="140" version="1.1" xmlns:cc="http://creativecommons.org/ns#" xmlns:dc="http://purl.org/dc/elements/1.1/">
 <metadata id="metadata7">
  <rdf:RDF>
   <cc:Work rdf:about="">
    <dc:format>image/svg+xml</dc:format>
    <dc:type rdf:resource="http://purl.org/dc/dcmitype/StillImage"/>
    <dc:title/>
   </cc:Work>
  </rdf:RDF>
 </metadata>
 <g id="layer1" transform="translate(-146.53782,-611.68094)">
  <path id="path3028" stroke-linejoin="round" style="enable-background:accumulate;color:black;" d="m216.54,612.43c-38.248,0-69.26,31.012-69.26,69.26s31.012,69.25,69.26,69.25,69.25-31.002,69.25-69.25-31.002-69.26-69.25-69.26zm-43.457,57.726c6.3676,0,11.524,5.1661,11.524,11.534,0,6.3676-5.1564,11.524-11.524,11.524s-11.534-5.1564-11.534-11.524,5.1661-11.534,11.534-11.534zm43.457,0c6.3676,0,11.524,5.1661,11.524,11.534,0,6.3676-5.1564,11.524-11.524,11.524s-11.534-5.1564-11.534-11.524,5.1661-11.534,11.534-11.534zm43.457,0c6.3676,0,11.524,5.1661,11.524,11.534,0,6.3676-5.1564,11.524-11.524,11.524s-11.534-5.1564-11.534-11.524,5.1661-11.534,11.534-11.534z" fill-rule="evenodd" stroke="#777" stroke-linecap="round" stroke-miterlimit="4" stroke-dasharray="none" stroke-width="1.48976755" fill="#777"/>
 </g>
</svg>
