<?xml version="1.0" encoding="UTF-8" standalone="no"?>
<!-- Created with Inkscape (http://www.inkscape.org/) -->
<svg id="svg2" xmlns:rdf="http://www.w3.org/1999/02/22-rdf-syntax-ns#" xmlns="http://www.w3.org/2000/svg" height="140" width="140" version="1.1" xmlns:cc="http://creativecommons.org/ns#" xmlns:xlink="http://www.w3.org/1999/xlink" xmlns:dc="http://purl.org/dc/elements/1.1/">
 <title id="title3181">DokuWiki Logo</title>
 <defs id="defs4">
  <linearGradient id="linearGradient4661" y2="210.36" gradientUnits="userSpaceOnUse" x2="206.06" y1="222.05" x1="202.42">
   <stop id="stop3166" stop-color="#848484" stop-opacity="0.81632656" offset="0"/>
   <stop id="stop3168" stop-color="#848484" stop-opacity="0.5714286" offset="1"/>
  </linearGradient>
  <linearGradient id="linearGradient4663" y2="213.12" gradientUnits="userSpaceOnUse" x2="251.64" y1="234.52" x1="248.62">
   <stop id="stop3172" stop-color="#555" stop-opacity="0.83673471" offset="0"/>
   <stop id="stop3174" stop-color="#555" stop-opacity="0.37755102" offset="1"/>
  </linearGradient>
  <linearGradient id="linearGradient4665" y2="217.94" gradientUnits="userSpaceOnUse" x2="255.68" y1="251.56" x1="275.72">
   <stop id="stop3178" stop-color="#606060" stop-opacity="0.83673471" offset="0"/>
   <stop id="stop3180" stop-color="#676767" stop-opacity="0.79591835" offset="1"/>
  </linearGradient>
 </defs>
 <metadata id="metadata7">
  <rdf:RDF>
   <cc:Work rdf:about="">
    <dc:format>image/svg+xml</dc:format>
    <dc:type rdf:resource="http://purl.org/dc/dcmitype/StillImage"/>
    <dc:title>DokuWiki Logo</dc:title>
    <dc:creator>
     <cc:Agent>
      <dc:title>Esther Brunner</dc:title>
     </cc:Agent>
    </dc:creator>
    <cc:license rdf:resource="http://www.gnu.org/licenses/gpl-2.0.html"/>
   </cc:Work>
  </rdf:RDF>
 </metadata>
 <g id="layer3" transform="translate(-164.05226,-140.56535)">
  <g id="g1419" transform="matrix(1.0936915,0,0,1.0893423,-14.812869,-25.897048)">
   <g id="g2376" fill-rule="evenodd" transform="matrix(0.88790157,0,0,0.88790157,30.359095,25.047992)" stroke="#777" stroke-miterlimit="4" stroke-dasharray="none" fill="#FFF">
    <path id="rect1422" stroke-linejoin="round" d="m120.22,196.44,70.907-0.79226-2.4026,109.05-71.718,0.37344,3.2137-108.63z" transform="matrix(0.989976,-0.141236,0.201069,0.979577,0,0)" stroke-linecap="butt" stroke-width="2.06555318"/>
    <path id="rect1425" stroke-linejoin="miter" d="m179.2,182.09,79.842-19.517,26.614,101.72-82.503,21.587-23.953-103.79z" stroke-linecap="round" stroke-width="2.06364775"/>
    <path id="rect1419" stroke-linejoin="round" d="m159.01,181.74,85.586,0.53396,0,110.47-84.534-2.5127-1.052-108.5z" transform="matrix(0.995676,-0.09289891,0.08102261,0.996712,0,0)" stroke-linecap="butt" stroke-width="5.49714327"/>
   </g>
   <g id="g2632" fill-rule="evenodd" transform="matrix(0.88790157,0,0,0.88790157,30.359095,13.224375)">
    <path id="path2414" style="marker-end:none;" d="m174.76,201.6c-6.0458,2.4667-10.168,4.4194-12.885,6.3506-2.7166,1.9312-3.1926,4.6001-3.2463,6.2659-0.0269,0.8329,0.0809,1.7777,0.63189,2.4401,0.55103,0.6624,1.8077,1.8742,2.7579,2.3856,1.9005,1.0227,7.5417,2.429,10.519,3.0731,11.909,2.5763,26.806,1.6812,26.806,1.6812,1.6931,1.2452,2.8328,2.8243,3.269,4.269,4.5766-1.8867,11.811-6.5844,13.157-8.5771-5.4514-4.1996-10.797-6.3335-16.513-8.3085-1.5987-0.71918-2.8796-1.2265-0.71773,2.5564,0.98506,2.4728,0.85786,5.0514,0.57176,7.4182,0,0-16.527,0.40678-28.238-2.1266-2.9277-0.63334-5.4663-0.95523-7.2188-1.8983-0.87624-0.47154-1.483-0.8208-1.9158-1.3411-0.43282-0.5203-0.2196-1.2906-0.20128-1.8586,0.0366-1.1361,0.25336-1.6706,2.8618-3.5249s5.6541-3.362,11.659-5.8121c-0.0877-1.2912-0.29025-2.5059-1.297-2.9929z" fill="url(#linearGradient4661)"/>
    <path id="path2608" d="m269.63,220.75c-1.4358-0.13963-2.5804,0.30288-2.5608,1.5022,0.94391,0.85652,1.3494,2.4352,1.4856,3.1401s0.0359,1.2191-0.48562,1.89c-1.043,1.3418-3.125,1.5688-6.5006,2.7206-6.7512,2.3038-16.893,2.5256-27.907,3.8464-22.028,2.6416-39.032,3.7611-39.032,3.7611,1.9835-4.6476,6.3283-4.412,6.349-8.2097,0.27376-0.89755-3.146-1.3164-5.0994-0.10731-4.2669,3.7014-7.5915,6.7535-10.694,10.513l1.888,3.0844s26.13-2.8897,48.198-5.5361c11.034-1.3232,20.956-1.9986,27.81-4.3373,3.4268-1.1694,5.9598-1.4902,7.6409-3.5196,0.63172-0.76256,1.3524-3.047,1.068-4.7337-0.21951-1.3021-1.1498-3.0977-2.1598-4.0142z" fill="url(#linearGradient4663)"/>
    <path id="path2620" d="m254.36,220.34c-6.85,3.242-7.1531,8.6091-5.9595,12.799,1.1936,4.1897,5.2629,8.7568,9.3212,12.406,8.1166,7.2986,12.06,9.3316,12.06,9.3316-3.7152-0.10342-7.8989-1.4117-8.1332,0.49304-0.9483,2.9758,11.491,3.4749,17.438,2.702-1.3946-7.5784-3.7932-13.215-7.7315-14.903-1.6846-0.14804,0.31242,4.7244,0.76985,9.396,0,0-3.6245-1.7312-11.605-8.9076-3.9903-3.5882-7.3739-7.3421-8.4732-11.201s0.0776-6.1205,4.9508-9.5318c0.92816-0.99528-1.2898-2.4591-2.6376-2.5842z" fill="url(#linearGradient4665)"/>
   </g>
   <g id="g2649" stroke-linejoin="round" fill-rule="evenodd" transform="matrix(0.88790157,0,0,0.88790157,30.359095,13.224375)" stroke="#777" stroke-linecap="butt" stroke-miterlimit="4" stroke-dasharray="none" stroke-width="3.66463208" fill="#ccc">
    <path id="path1443" d="m232.56,219.53-15.928,0.32199,3.0881-15.157,12.84,14.835z"/>
    <path id="rect1437" d="m269.44,159.27,0.098,8.9147,8.0581,8.7234,7.7591,0.7992-52.807,41.841-6.6653-3.307-5.0824-5.618-1.0899-5.9119,49.729-45.441z"/>
    <path id="path1440" d="m285.34,177.73-8.1622-0.86619-7.7518-8.6786,0.0132-9.1429,8.3621,0.75209,7.1886,9.5768,0.35007,8.3588z"/>
   </g>
   <g id="g2657" stroke-linejoin="round" transform="matrix(0.93975756,0,0,0.93975756,23.580012,2.338367)" stroke="#777" stroke-miterlimit="4" stroke-dasharray="none" stroke-width="3.66463208" fill="#ccc">
    <path id="rect2207" d="m200.91,238.45-8.046,15.774-7.0558-13.573,15.102-2.2005z"/>
    <path id="rect1328" d="m201.05,238.55,62.117,24.919-7.8869,3.2143-4.3515,9.3098,1.1716,9.964-59.315-31.728-0.49402-7.3638,3.0959-5.8283,5.6624-2.4875z"/>
    <path id="rect2204" d="m255.28,266.54,7.9241-3.0477,0.85337,10.24-3.9011,8.2898-8.046,3.7792-1.341-9.6308,4.5106-9.6308z"/>
   </g>
  </g>
 </g>
</svg>
